ffmpeg version 8.1-full_build-www.gyan.dev Copyright (c) 2000-2026 the FFmpeg developers
  built with gcc 15.2.0 (Rev11, Built by MSYS2 project)
  configuration: --enable-gpl --enable-version3 --enable-static --disable-w32threads --disable-autodetect --enable-cairo --enable-fontconfig --enable-iconv --enable-gnutls --enable-lcms2 --enable-libxml2 --enable-gmp --enable-bzlib --enable-lzma --enable-libsnappy --enable-zlib --enable-librist --enable-libsrt --enable-libssh --enable-libzmq --enable-avisynth --enable-libbluray --enable-libcaca --enable-libdvdnav --enable-libdvdread --enable-sdl2 --enable-libaribb24 --enable-libaribcaption --enable-libdav1d --enable-libdavs2 --enable-libopenjpeg --enable-libquirc --enable-libuavs3d --enable-libxevd --enable-libzvbi --enable-liboapv --enable-libqrencode --enable-librav1e --enable-libsvtav1 --enable-libvvenc --enable-libwebp --enable-libx264 --enable-libx265 --enable-libxavs2 --enable-libxeve --enable-libxvid --enable-libaom --enable-libjxl --enable-libsvtjpegxs --enable-libvpx --enable-mediafoundation --enable-libass --enable-frei0r --enable-libfreetype --enable-libfribidi --enable-libharfbuzz --enable-liblensfun --enable-libvidstab --enable-libvmaf --enable-libzimg --enable-amf --enable-cuda-llvm --enable-cuvid --enable-dxva2 --enable-d3d11va --enable-d3d12va --enable-ffnvcodec --enable-libvpl --enable-nvdec --enable-nvenc --enable-vaapi --enable-libshaderc --enable-vulkan --enable-libplacebo --enable-opencl --enable-libcdio --enable-openal --enable-libgme --enable-libmodplug --enable-libopenmpt --enable-libopencore-amrwb --enable-libmp3lame --enable-libshine --enable-libtheora --enable-libtwolame --enable-libvo-amrwbenc --enable-libcodec2 --enable-libilbc --enable-libgsm --enable-liblc3 --enable-libopencore-amrnb --enable-libopus --enable-libspeex --enable-libvorbis --enable-ladspa --enable-libbs2b --enable-libflite --enable-libmysofa --enable-librubberband --enable-libsoxr --enable-chromaprint --enable-whisper
  libavutil      60. 26.100 / 60. 26.100
  libavcodec     62. 28.100 / 62. 28.100
  libavformat    62. 12.100 / 62. 12.100
  libavdevice    62.  3.100 / 62.  3.100
  libavfilter    11. 14.100 / 11. 14.100
  libswscale      9.  5.100 /  9.  5.100
  libswresample   6.  3.100 /  6.  3.100
-filter_complex_script is deprecated, use -/filter_complex C:\t\x1dzc3aj1\filter_complex.txt instead
[in#0/mp3 @ 000002493824f480] Estimating duration from bitrate, this may be inaccurate
Input #0, mp3, from 'C:\t\x1dzc3aj1\seg_001.mp3':
  Duration: 00:00:19.01, start: 0.000000, bitrate: 48 kb/s
  Stream #0:0: Audio: mp3 (mp3float), 24000 Hz, mono, fltp, 48 kb/s
[in#1/mp3 @ 000002493824ff40] Estimating duration from bitrate, this may be inaccurate
Input #1, mp3, from 'C:\t\x1dzc3aj1\seg_002.mp3':
  Duration: 00:00:13.68, start: 0.000000, bitrate: 48 kb/s
  Stream #1:0: Audio: mp3 (mp3float), 24000 Hz, mono, fltp, 48 kb/s
[in#2/mp3 @ 000002493824fa00] Estimating duration from bitrate, this may be inaccurate
Input #2, mp3, from 'C:\t\x1dzc3aj1\seg_003.mp3':
  Duration: 00:00:18.10, start: 0.000000, bitrate: 48 kb/s
  Stream #2:0: Audio: mp3 (mp3float), 24000 Hz, mono, fltp, 48 kb/s
[in#3/mp3 @ 000002493824fcc0] Estimating duration from bitrate, this may be inaccurate
Input #3, mp3, from 'C:\t\x1dzc3aj1\seg_004.mp3':
  Duration: 00:00:15.17, start: 0.000000, bitrate: 48 kb/s
  Stream #3:0: Audio: mp3 (mp3float), 24000 Hz, mono, fltp, 48 kb/s
[in#4/mp3 @ 000002493824f740] Estimating duration from bitrate, this may be inaccurate
Input #4, mp3, from 'C:\t\x1dzc3aj1\seg_005.mp3':
  Duration: 00:00:16.87, start: 0.000000, bitrate: 48 kb/s
  Stream #4:0: Audio: mp3 (mp3float), 24000 Hz, mono, fltp, 48 kb/s
[in#5/mp3 @ 0000024938214cc0] Estimating duration from bitrate, this may be inaccurate
Input #5, mp3, from 'C:\t\x1dzc3aj1\seg_006.mp3':
  Duration: 00:00:16.94, start: 0.000000, bitrate: 48 kb/s
  Stream #5:0: Audio: mp3 (mp3float), 24000 Hz, mono, fltp, 48 kb/s
[in#6/mp3 @ 0000024938216a40] Estimating duration from bitrate, this may be inaccurate
Input #6, mp3, from 'C:\t\x1dzc3aj1\seg_007.mp3':
  Duration: 00:00:16.15, start: 0.000000, bitrate: 48 kb/s
  Stream #6:0: Audio: mp3 (mp3float), 24000 Hz, mono, fltp, 48 kb/s
[in#7/mp3 @ 00000249382154c0] Estimating duration from bitrate, this may be inaccurate
Input #7, mp3, from 'C:\t\x1dzc3aj1\seg_008.mp3':
  Duration: 00:00:19.01, start: 0.000000, bitrate: 48 kb/s
  Stream #7:0: Audio: mp3 (mp3float), 24000 Hz, mono, fltp, 48 kb/s
[in#8/mp3 @ 00000249382177c0] Estimating duration from bitrate, this may be inaccurate
Input #8, mp3, from 'C:\t\x1dzc3aj1\seg_009.mp3':
  Duration: 00:00:17.76, start: 0.000000, bitrate: 48 kb/s
  Stream #8:0: Audio: mp3 (mp3float), 24000 Hz, mono, fltp, 48 kb/s
[in#9/mp3 @ 0000024938216240] Estimating duration from bitrate, this may be inaccurate
Input #9, mp3, from 'C:\t\x1dzc3aj1\seg_010.mp3':
  Duration: 00:00:15.53, start: 0.000000, bitrate: 48 kb/s
  Stream #9:0: Audio: mp3 (mp3float), 24000 Hz, mono, fltp, 48 kb/s
[in#10/mp3 @ 0000024938215f80] Estimating duration from bitrate, this may be inaccurate
Input #10, mp3, from 'C:\t\x1dzc3aj1\seg_011.mp3':
  Duration: 00:00:18.79, start: 0.000000, bitrate: 48 kb/s
  Stream #10:0: Audio: mp3 (mp3float), 24000 Hz, mono, fltp, 48 kb/s
[in#11/mp3 @ 0000024938216d00] Estimating duration from bitrate, this may be inaccurate
Input #11, mp3, from 'C:\t\x1dzc3aj1\seg_012.mp3':
  Duration: 00:00:16.87, start: 0.000000, bitrate: 48 kb/s
  Stream #11:0: Audio: mp3 (mp3float), 24000 Hz, mono, fltp, 48 kb/s
[in#12/mp3 @ 0000024938217240] Estimating duration from bitrate, this may be inaccurate
Input #12, mp3, from 'C:\t\x1dzc3aj1\seg_013.mp3':
  Duration: 00:00:16.56, start: 0.000000, bitrate: 48 kb/s
  Stream #12:0: Audio: mp3 (mp3float), 24000 Hz, mono, fltp, 48 kb/s
[in#13/mp3 @ 0000024938214740] Estimating duration from bitrate, this may be inaccurate
Input #13, mp3, from 'C:\t\x1dzc3aj1\seg_014.mp3':
  Duration: 00:00:13.37, start: 0.000000, bitrate: 48 kb/s
  Stream #13:0: Audio: mp3 (mp3float), 24000 Hz, mono, fltp, 48 kb/s
[in#14/mp3 @ 0000024938216fc0] Estimating duration from bitrate, this may be inaccurate
Input #14, mp3, from 'C:\t\x1dzc3aj1\seg_015.mp3':
  Duration: 00:00:14.28, start: 0.000000, bitrate: 48 kb/s
  Stream #14:0: Audio: mp3 (mp3float), 24000 Hz, mono, fltp, 48 kb/s
[in#15/mp3 @ 0000024938214a00] Estimating duration from bitrate, this may be inaccurate
Input #15, mp3, from 'C:\t\x1dzc3aj1\seg_016.mp3':
  Duration: 00:00:15.70, start: 0.000000, bitrate: 48 kb/s
  Stream #15:0: Audio: mp3 (mp3float), 24000 Hz, mono, fltp, 48 kb/s
[in#16/mp3 @ 0000024938217500] Estimating duration from bitrate, this may be inaccurate
Input #16, mp3, from 'C:\t\x1dzc3aj1\seg_017.mp3':
  Duration: 00:00:14.26, start: 0.000000, bitrate: 48 kb/s
  Stream #16:0: Audio: mp3 (mp3float), 24000 Hz, mono, fltp, 48 kb/s
[in#17/mp3 @ 0000024938214f80] Estimating duration from bitrate, this may be inaccurate
Input #17, mp3, from 'C:\t\x1dzc3aj1\seg_018.mp3':
  Duration: 00:00:14.16, start: 0.000000, bitrate: 48 kb/s
  Stream #17:0: Audio: mp3 (mp3float), 24000 Hz, mono, fltp, 48 kb/s
[in#18/mp3 @ 0000024938217a80] Estimating duration from bitrate, this may be inaccurate
Input #18, mp3, from 'C:\t\x1dzc3aj1\seg_019.mp3':
  Duration: 00:00:15.55, start: 0.000000, bitrate: 48 kb/s
  Stream #18:0: Audio: mp3 (mp3float), 24000 Hz, mono, fltp, 48 kb/s
[in#19/mp3 @ 0000024938217d00] Estimating duration from bitrate, this may be inaccurate
Input #19, mp3, from 'C:\t\x1dzc3aj1\seg_020.mp3':
  Duration: 00:00:13.90, start: 0.000000, bitrate: 48 kb/s
  Stream #19:0: Audio: mp3 (mp3float), 24000 Hz, mono, fltp, 48 kb/s
[in#20/mp3 @ 00000249382144c0] Estimating duration from bitrate, this may be inaccurate
Input #20, mp3, from 'C:\t\x1dzc3aj1\seg_021.mp3':
  Duration: 00:00:15.82, start: 0.000000, bitrate: 48 kb/s
  Stream #20:0: Audio: mp3 (mp3float), 24000 Hz, mono, fltp, 48 kb/s
[in#21/mp3 @ 0000024938215cc0] Estimating duration from bitrate, this may be inaccurate
Input #21, mp3, from 'C:\t\x1dzc3aj1\seg_022.mp3':
  Duration: 00:00:16.06, start: 0.000000, bitrate: 48 kb/s
  Stream #21:0: Audio: mp3 (mp3float), 24000 Hz, mono, fltp, 48 kb/s
[in#22/mp3 @ 0000024938217fc0] Estimating duration from bitrate, this may be inaccurate
Input #22, mp3, from 'C:\t\x1dzc3aj1\seg_023.mp3':
  Duration: 00:00:15.72, start: 0.000000, bitrate: 48 kb/s
  Stream #22:0: Audio: mp3 (mp3float), 24000 Hz, mono, fltp, 48 kb/s
[in#23/mp3 @ 0000024938216500] Estimating duration from bitrate, this may be inaccurate
Input #23, mp3, from 'C:\t\x1dzc3aj1\seg_024.mp3':
  Duration: 00:00:15.96, start: 0.000000, bitrate: 48 kb/s
  Stream #23:0: Audio: mp3 (mp3float), 24000 Hz, mono, fltp, 48 kb/s
[in#24/mp3 @ 0000024938215200] Estimating duration from bitrate, this may be inaccurate
Input #24, mp3, from 'C:\t\x1dzc3aj1\seg_025.mp3':
  Duration: 00:00:16.22, start: 0.000000, bitrate: 48 kb/s
  Stream #24:0: Audio: mp3 (mp3float), 24000 Hz, mono, fltp, 48 kb/s
[in#25/mp3 @ 0000024938215780] Estimating duration from bitrate, this may be inaccurate
Input #25, mp3, from 'C:\t\x1dzc3aj1\seg_026.mp3':
  Duration: 00:00:16.99, start: 0.000000, bitrate: 48 kb/s
  Stream #25:0: Audio: mp3 (mp3float), 24000 Hz, mono, fltp, 48 kb/s
[in#26/mp3 @ 0000024938215a40] Estimating duration from bitrate, this may be inaccurate
Input #26, mp3, from 'C:\t\x1dzc3aj1\seg_027.mp3':
  Duration: 00:00:16.01, start: 0.000000, bitrate: 48 kb/s
  Stream #26:0: Audio: mp3 (mp3float), 24000 Hz, mono, fltp, 48 kb/s
[in#27/mp3 @ 0000024938216780] Estimating duration from bitrate, this may be inaccurate
Input #27, mp3, from 'C:\t\x1dzc3aj1\seg_028.mp3':
  Duration: 00:00:17.40, start: 0.000000, bitrate: 48 kb/s
  Stream #27:0: Audio: mp3 (mp3float), 24000 Hz, mono, fltp, 48 kb/s
[in#28/mp3 @ 0000024938ab7640] Estimating duration from bitrate, this may be inaccurate
Input #28, mp3, from 'C:\t\x1dzc3aj1\seg_029.mp3':
  Duration: 00:00:14.81, start: 0.000000, bitrate: 48 kb/s
  Stream #28:0: Audio: mp3 (mp3float), 24000 Hz, mono, fltp, 48 kb/s
[in#29/mp3 @ 0000024938ab9680] Estimating duration from bitrate, this may be inaccurate
Input #29, mp3, from 'C:\t\x1dzc3aj1\seg_030.mp3':
  Duration: 00:00:17.71, start: 0.000000, bitrate: 48 kb/s
  Stream #29:0: Audio: mp3 (mp3float), 24000 Hz, mono, fltp, 48 kb/s
[in#30/mp3 @ 0000024938ab93c0] Estimating duration from bitrate, this may be inaccurate
Input #30, mp3, from 'C:\t\x1dzc3aj1\seg_031.mp3':
  Duration: 00:00:16.32, start: 0.000000, bitrate: 48 kb/s
  Stream #30:0: Audio: mp3 (mp3float), 24000 Hz, mono, fltp, 48 kb/s
[in#31/mp3 @ 0000024938ab8640] Estimating duration from bitrate, this may be inaccurate
Input #31, mp3, from 'C:\t\x1dzc3aj1\seg_032.mp3':
  Duration: 00:00:16.46, start: 0.000000, bitrate: 48 kb/s
  Stream #31:0: Audio: mp3 (mp3float), 24000 Hz, mono, fltp, 48 kb/s
[in#32/mp3 @ 0000024938abb140] Estimating duration from bitrate, this may be inaccurate
Input #32, mp3, from 'C:\t\x1dzc3aj1\seg_033.mp3':
  Duration: 00:00:14.69, start: 0.000000, bitrate: 48 kb/s
  Stream #32:0: Audio: mp3 (mp3float), 24000 Hz, mono, fltp, 48 kb/s
[in#33/mp3 @ 0000024938aba680] Estimating duration from bitrate, this may be inaccurate
Input #33, mp3, from 'C:\t\x1dzc3aj1\seg_034.mp3':
  Duration: 00:00:17.23, start: 0.000000, bitrate: 48 kb/s
  Stream #33:0: Audio: mp3 (mp3float), 24000 Hz, mono, fltp, 48 kb/s
[in#34/mp3 @ 0000024938ab9940] Estimating duration from bitrate, this may be inaccurate
Input #34, mp3, from 'C:\t\x1dzc3aj1\seg_035.mp3':
  Duration: 00:00:17.83, start: 0.000000, bitrate: 48 kb/s
  Stream #34:0: Audio: mp3 (mp3float), 24000 Hz, mono, fltp, 48 kb/s
[in#35/mp3 @ 0000024938ab8e80] Estimating duration from bitrate, this may be inaccurate
Input #35, mp3, from 'C:\t\x1dzc3aj1\seg_036.mp3':
  Duration: 00:00:15.91, start: 0.000000, bitrate: 48 kb/s
  Stream #35:0: Audio: mp3 (mp3float), 24000 Hz, mono, fltp, 48 kb/s
[in#36/mp3 @ 0000024938aba940] Estimating duration from bitrate, this may be inaccurate
Input #36, mp3, from 'C:\t\x1dzc3aj1\seg_037.mp3':
  Duration: 00:00:16.75, start: 0.000000, bitrate: 48 kb/s
  Stream #36:0: Audio: mp3 (mp3float), 24000 Hz, mono, fltp, 48 kb/s
[in#37/mp3 @ 0000024938ab9100] Estimating duration from bitrate, this may be inaccurate
Input #37, mp3, from 'C:\t\x1dzc3aj1\seg_038.mp3':
  Duration: 00:00:15.41, start: 0.000000, bitrate: 48 kb/s
  Stream #37:0: Audio: mp3 (mp3float), 24000 Hz, mono, fltp, 48 kb/s
[in#38/mp3 @ 0000024938abaec0] Estimating duration from bitrate, this may be inaccurate
Input #38, mp3, from 'C:\t\x1dzc3aj1\seg_039.mp3':
  Duration: 00:00:17.28, start: 0.000000, bitrate: 48 kb/s
  Stream #38:0: Audio: mp3 (mp3float), 24000 Hz, mono, fltp, 48 kb/s
[in#39/mp3 @ 0000024938ab9bc0] Estimating duration from bitrate, this may be inaccurate
Input #39, mp3, from 'C:\t\x1dzc3aj1\seg_040.mp3':
  Duration: 00:00:17.40, start: 0.000000, bitrate: 48 kb/s
  Stream #39:0: Audio: mp3 (mp3float), 24000 Hz, mono, fltp, 48 kb/s
[in#40/mp3 @ 0000024938ab9e80] Estimating duration from bitrate, this may be inaccurate
Input #40, mp3, from 'C:\t\x1dzc3aj1\seg_041.mp3':
  Duration: 00:00:16.49, start: 0.000000, bitrate: 48 kb/s
  Stream #40:0: Audio: mp3 (mp3float), 24000 Hz, mono, fltp, 48 kb/s
[in#41/mp3 @ 0000024938aba140] Estimating duration from bitrate, this may be inaccurate
Input #41, mp3, from 'C:\t\x1dzc3aj1\seg_042.mp3':
  Duration: 00:00:14.76, start: 0.000000, bitrate: 48 kb/s
  Stream #41:0: Audio: mp3 (mp3float), 24000 Hz, mono, fltp, 48 kb/s
[in#42/mp3 @ 0000024938aba400] Estimating duration from bitrate, this may be inaccurate
Input #42, mp3, from 'C:\t\x1dzc3aj1\seg_043.mp3':
  Duration: 00:00:16.92, start: 0.000000, bitrate: 48 kb/s
  Stream #42:0: Audio: mp3 (mp3float), 24000 Hz, mono, fltp, 48 kb/s
[in#43/mp3 @ 0000024938abac00] Estimating duration from bitrate, this may be inaccurate
Input #43, mp3, from 'C:\t\x1dzc3aj1\seg_044.mp3':
  Duration: 00:00:16.94, start: 0.000000, bitrate: 48 kb/s
  Stream #43:0: Audio: mp3 (mp3float), 24000 Hz, mono, fltp, 48 kb/s
[in#44/mp3 @ 0000024938ab7900] Estimating duration from bitrate, this may be inaccurate
Input #44, mp3, from 'C:\t\x1dzc3aj1\seg_045.mp3':
  Duration: 00:00:17.02, start: 0.000000, bitrate: 48 kb/s
  Stream #44:0: Audio: mp3 (mp3float), 24000 Hz, mono, fltp, 48 kb/s
[in#45/mp3 @ 0000024938ab7b80] Estimating duration from bitrate, this may be inaccurate
Input #45, mp3, from 'C:\t\x1dzc3aj1\seg_046.mp3':
  Duration: 00:00:13.10, start: 0.000000, bitrate: 48 kb/s
  Stream #45:0: Audio: mp3 (mp3float), 24000 Hz, mono, fltp, 48 kb/s
[in#46/mp3 @ 0000024938ab7e40] Estimating duration from bitrate, this may be inaccurate
Input #46, mp3, from 'C:\t\x1dzc3aj1\seg_047.mp3':
  Duration: 00:00:16.27, start: 0.000000, bitrate: 48 kb/s
  Stream #46:0: Audio: mp3 (mp3float), 24000 Hz, mono, fltp, 48 kb/s
[in#47/mp3 @ 0000024938ab8100] Estimating duration from bitrate, this may be inaccurate
Input #47, mp3, from 'C:\t\x1dzc3aj1\seg_048.mp3':
  Duration: 00:00:15.77, start: 0.000000, bitrate: 48 kb/s
  Stream #47:0: Audio: mp3 (mp3float), 24000 Hz, mono, fltp, 48 kb/s
[in#48/mp3 @ 0000024938ab83c0] Estimating duration from bitrate, this may be inaccurate
Input #48, mp3, from 'C:\t\x1dzc3aj1\seg_049.mp3':
  Duration: 00:00:14.98, start: 0.000000, bitrate: 48 kb/s
  Stream #48:0: Audio: mp3 (mp3float), 24000 Hz, mono, fltp, 48 kb/s
[in#49/mp3 @ 0000024938ab8900] Estimating duration from bitrate, this may be inaccurate
Input #49, mp3, from 'C:\t\x1dzc3aj1\seg_050.mp3':
  Duration: 00:00:15.19, start: 0.000000, bitrate: 48 kb/s
  Stream #49:0: Audio: mp3 (mp3float), 24000 Hz, mono, fltp, 48 kb/s
Stream mapping:
  Stream #0:0 (mp3float) -> adelay:default
  Stream #1:0 (mp3float) -> adelay:default
  Stream #2:0 (mp3float) -> adelay:default
  Stream #3:0 (mp3float) -> adelay:default
  Stream #4:0 (mp3float) -> adelay:default
  Stream #5:0 (mp3float) -> adelay:default
  Stream #6:0 (mp3float) -> adelay:default
  Stream #7:0 (mp3float) -> adelay:default
  Stream #8:0 (mp3float) -> adelay:default
  Stream #9:0 (mp3float) -> adelay:default
  Stream #10:0 (mp3float) -> adelay:default
  Stream #11:0 (mp3float) -> adelay:default
  Stream #12:0 (mp3float) -> adelay:default
  Stream #13:0 (mp3float) -> adelay:default
  Stream #14:0 (mp3float) -> adelay:default
  Stream #15:0 (mp3float) -> adelay:default
  Stream #16:0 (mp3float) -> adelay:default
  Stream #17:0 (mp3float) -> adelay:default
  Stream #18:0 (mp3float) -> adelay:default
  Stream #19:0 (mp3float) -> adelay:default
  Stream #20:0 (mp3float) -> adelay:default
  Stream #21:0 (mp3float) -> adelay:default
  Stream #22:0 (mp3float) -> adelay:default
  Stream #23:0 (mp3float) -> adelay:default
  Stream #24:0 (mp3float) -> adelay:default
  Stream #25:0 (mp3float) -> adelay:default
  Stream #26:0 (mp3float) -> adelay:default
  Stream #27:0 (mp3float) -> adelay:default
  Stream #28:0 (mp3float) -> adelay:default
  Stream #29:0 (mp3float) -> adelay:default
  Stream #30:0 (mp3float) -> adelay:default
  Stream #31:0 (mp3float) -> adelay:default
  Stream #32:0 (mp3float) -> adelay:default
  Stream #33:0 (mp3float) -> adelay:default
  Stream #34:0 (mp3float) -> adelay:default
  Stream #35:0 (mp3float) -> adelay:default
  Stream #36:0 (mp3float) -> adelay:default
  Stream #37:0 (mp3float) -> adelay:default
  Stream #38:0 (mp3float) -> adelay:default
  Stream #39:0 (mp3float) -> adelay:default
  Stream #40:0 (mp3float) -> adelay:default
  Stream #41:0 (mp3float) -> adelay:default
  Stream #42:0 (mp3float) -> adelay:default
  Stream #43:0 (mp3float) -> adelay:default
  Stream #44:0 (mp3float) -> adelay:default
  Stream #45:0 (mp3float) -> adelay:default
  Stream #46:0 (mp3float) -> adelay:default
  Stream #47:0 (mp3float) -> adelay:default
  Stream #48:0 (mp3float) -> adelay:default
  Stream #49:0 (mp3float) -> adelay:default
  apad:default -> Stream #0:0 (libmp3lame)
Press [q] to stop, [?] for help
Output #0, mp3, to 'outputs\audio\手机芯片为什么塞得下CPU、GPU和AI_时间线01_等长_Yunyang.mp3':
  Metadata:
    TSSE            : Lavf62.12.100
  Stream #0:0: Audio: mp3, 44100 Hz, stereo, fltp, 192 kb/s
    Metadata:
      encoder         : Lavc62.28.100 libmp3lame
size=    2304KiB time=00:01:42.97 bitrate= 183.3kbits/s speed= 200x elapsed=0:00:00.51    size=    4864KiB time=00:03:37.44 bitrate= 183.2kbits/s speed= 209x elapsed=0:00:01.03    size=    7424KiB time=00:05:23.76 bitrate= 187.8kbits/s speed= 209x elapsed=0:00:01.54    size=    9984KiB time=00:07:08.87 bitrate= 190.7kbits/s speed= 207x elapsed=0:00:02.06    size=   12800KiB time=00:09:07.50 bitrate= 191.5kbits/s speed= 211x elapsed=0:00:02.58    size=   15360KiB time=00:11:01.97 bitrate= 190.1kbits/s speed= 214x elapsed=0:00:03.09    size=   17920KiB time=00:12:50.58 bitrate= 190.5kbits/s speed= 213x elapsed=0:00:03.61    size=   20480KiB time=00:14:39.64 bitrate= 190.7kbits/s speed= 213x elapsed=0:00:04.12    size=   23296KiB time=00:16:34.61 bitrate= 191.9kbits/s speed= 214x elapsed=0:00:04.65    size=   25600KiB time=00:18:14.29 bitrate= 191.6kbits/s speed= 212x elapsed=0:00:05.15    size=   28160KiB time=00:20:04.48 bitrate= 191.5kbits/s speed= 212x elapsed=0:00:05.68    size=   30720KiB time=00:21:59.78 bitrate= 190.7kbits/s speed= 213x elapsed=0:00:06.20    size=   33280KiB time=00:23:41.66 bitrate= 191.8kbits/s speed= 212x elapsed=0:00:06.71    [out#0/mp3 @ 0000024938b048c0] video:0KiB audio:35044KiB subtitle:0KiB other streams:0KiB global headers:0KiB muxing overhead: 0.001870%
size=   35045KiB time=00:24:55.17 bitrate= 192.0kbits/s speed= 212x elapsed=0:00:07.04    
